<?xml version="1.0" encoding="UTF-8" ?>
<!DOCTYPE svg PUBLIC "-//W3C//DTD SVG 1.1//EN" "http://www.w3.org/Graphics/SVG/1.1/DTD/svg11.dtd">
<svg width="1343pt" height="270pt" viewBox="0 0 1343 270" version="1.1" xmlns="http://www.w3.org/2000/svg">
<path fill="#000000" opacity="1.00" d=" M 510.37 60.03 C 513.79 59.98 517.21 59.98 520.64 60.04 C 520.62 99.36 520.63 138.68 520.63 178.00 C 520.65 181.33 520.46 184.69 520.84 188.01 C 521.28 192.31 524.43 196.23 528.63 197.38 C 533.74 198.79 539.08 197.43 544.03 196.01 C 544.74 198.69 545.42 201.37 546.07 204.07 C 538.61 206.54 530.39 208.29 522.62 206.36 C 515.06 204.34 510.18 196.66 510.40 189.02 C 510.33 146.02 510.40 103.03 510.37 60.03 Z" />
<path fill="#000000" opacity="1.00" d=" M 963.01 60.01 C 973.67 60.00 984.34 59.99 995.01 60.01 C 995.05 79.29 995.06 98.57 995.00 117.84 C 999.48 110.80 1005.82 104.78 1013.69 101.73 C 1026.66 96.83 1042.16 98.34 1053.43 106.66 C 1067.42 116.69 1074.31 134.19 1074.97 150.98 C 1075.77 166.25 1070.89 182.08 1060.31 193.31 C 1051.78 202.43 1039.50 207.90 1027.00 208.02 C 1017.28 208.29 1007.24 205.59 999.69 199.30 C 996.10 196.47 993.36 192.77 990.83 189.02 C 990.79 194.68 990.84 200.34 990.81 206.00 C 981.54 206.06 972.27 206.05 963.01 206.01 C 962.99 157.34 963.00 108.67 963.01 60.01 M 1015.39 126.48 C 1006.79 127.88 1000.13 134.64 996.16 142.04 C 994.80 144.12 995.00 146.65 995.00 149.01 C 995.06 153.68 995.02 158.35 995.00 163.03 C 995.08 164.48 994.86 166.06 995.54 167.41 C 999.87 175.94 1009.46 181.79 1019.10 180.89 C 1026.88 180.40 1034.18 175.74 1038.12 169.05 C 1044.49 158.46 1043.12 144.03 1035.47 134.46 C 1030.76 128.55 1022.91 125.25 1015.39 126.48 Z" />
<path fill="#000000" opacity="1.00" d=" M 1090.57 60.01 C 1101.26 60.00 1111.95 59.97 1122.63 60.03 C 1122.61 94.69 1122.65 129.35 1122.62 164.01 C 1122.64 167.31 1122.44 170.67 1123.29 173.90 C 1124.03 176.75 1126.20 179.30 1129.12 180.07 C 1133.97 181.37 1138.99 179.80 1143.48 177.94 C 1144.82 185.92 1146.28 193.88 1147.62 201.86 C 1139.26 205.53 1130.15 207.40 1121.05 207.78 C 1113.20 208.10 1104.76 206.64 1098.69 201.31 C 1092.68 196.04 1090.51 187.73 1090.58 180.00 C 1090.55 140.00 1090.55 100.01 1090.57 60.01 Z" />
<path fill="#000000" opacity="1.00" d=" M 82.01 62.01 C 87.34 61.99 92.66 61.99 97.99 62.01 C 98.01 67.34 98.01 72.66 97.99 77.99 C 92.66 78.01 87.34 78.01 82.01 77.99 C 81.99 72.66 81.99 67.34 82.01 62.01 Z" />
<path fill="#000000" opacity="1.00" d=" M 114.69 62.01 C 120.12 61.99 125.56 61.99 130.99 62.01 C 131.01 67.34 131.01 72.66 130.99 77.99 C 125.63 78.01 120.27 78.01 114.91 77.99 C 114.45 72.68 114.75 67.34 114.69 62.01 Z" />
<path fill="#000000" opacity="1.00" d=" M 147.78 62.02 C 153.20 61.99 158.63 61.99 164.07 62.02 C 164.08 67.34 164.12 72.66 164.03 77.99 C 158.66 78.01 153.29 78.01 147.92 77.99 C 147.62 72.67 147.80 67.34 147.78 62.02 Z" />
<path fill="#000000" opacity="1.00" d=" M 180.85 62.02 C 186.28 61.99 191.71 61.99 197.14 62.02 C 197.14 67.34 197.23 72.66 197.05 77.98 C 191.68 78.01 186.31 78.01 180.95 77.98 C 180.75 72.66 180.86 67.34 180.85 62.02 Z" />
<path fill="#000000" opacity="1.00" d=" M 282.72 72.71 C 290.63 66.89 300.42 64.25 310.09 63.35 C 320.85 62.43 331.94 63.11 342.15 66.84 C 349.74 69.57 356.65 74.03 362.45 79.61 C 360.73 82.27 359.01 84.91 357.26 87.55 C 354.24 84.59 351.10 81.68 347.43 79.53 C 339.24 74.53 329.57 72.44 320.05 72.28 C 312.08 72.15 303.96 72.76 296.39 75.42 C 290.01 77.66 284.36 82.23 281.34 88.33 C 278.37 94.35 277.82 101.39 279.12 107.92 C 280.05 112.52 282.94 116.58 286.74 119.28 C 291.77 122.84 297.70 124.86 303.62 126.40 C 317.31 130.20 331.50 132.19 344.88 137.12 C 352.35 139.91 359.68 143.99 364.47 150.54 C 369.85 157.63 370.72 167.09 369.61 175.67 C 368.57 183.64 364.30 191.04 358.07 196.09 C 350.14 202.59 339.92 205.46 329.91 206.63 C 320.40 207.60 310.74 207.40 301.35 205.56 C 287.04 202.85 273.60 195.94 262.97 186.01 C 264.75 183.26 266.54 180.52 268.37 177.80 C 276.30 185.81 286.23 191.76 297.00 195.04 C 307.78 198.24 319.23 198.80 330.36 197.51 C 338.70 196.32 347.46 193.71 353.38 187.39 C 358.99 181.34 360.01 172.39 358.54 164.57 C 356.88 156.71 350.33 150.99 343.29 147.79 C 330.68 141.93 316.73 140.09 303.37 136.63 C 295.42 134.52 287.31 132.29 280.40 127.68 C 275.36 124.36 271.18 119.48 269.43 113.64 C 267.69 107.82 267.62 101.61 268.53 95.64 C 269.96 86.51 275.26 78.13 282.72 72.71 Z" />
<path fill="#000000" opacity="1.00" d=" M 790.95 66.30 C 794.23 66.39 797.52 66.38 800.82 66.37 C 800.83 78.24 800.79 90.11 800.83 101.98 C 808.89 102.03 816.95 101.97 825.01 102.01 C 825.04 104.75 825.03 107.49 825.01 110.24 C 816.95 110.28 808.89 110.22 800.84 110.26 C 800.78 134.84 800.85 159.41 800.80 183.99 C 800.84 186.86 800.80 189.98 802.51 192.44 C 805.03 196.09 809.65 197.80 813.98 197.73 C 819.73 198.01 825.05 195.57 830.03 192.99 C 831.06 195.67 832.06 198.36 833.03 201.06 C 827.87 204.17 822.04 206.08 816.09 206.92 C 810.30 207.66 804.07 207.18 799.00 204.05 C 794.46 201.30 791.32 196.34 790.91 191.04 C 790.63 187.70 790.76 184.35 790.75 181.01 C 790.74 157.42 790.76 133.84 790.74 110.26 C 785.89 110.23 781.04 110.27 776.19 110.23 C 776.17 107.49 776.17 104.76 776.18 102.02 C 781.04 101.98 785.89 102.03 790.75 101.98 C 790.88 90.08 790.49 78.18 790.95 66.30 Z" />
<path fill="#000000" opacity="1.00" d=" M 82.01 95.01 C 87.34 94.99 92.66 94.99 97.99 95.01 C 98.01 100.34 98.01 105.66 97.99 110.99 C 92.66 111.01 87.33 111.01 82.01 110.99 C 81.99 105.66 81.99 100.34 82.01 95.01 Z" />
<path fill="#000000" opacity="1.00" d=" M 180.85 95.02 C 186.28 94.99 191.71 94.99 197.14 95.02 C 197.13 100.34 197.23 105.66 197.05 110.98 C 191.68 111.01 186.31 111.01 180.95 110.98 C 180.75 105.66 180.86 100.34 180.85 95.02 Z" />
<path fill="#000000" opacity="1.00" d=" M 860.40 104.45 C 873.25 99.33 887.40 98.00 901.08 99.62 C 910.16 100.78 919.29 103.71 926.40 109.66 C 932.98 114.96 937.23 122.79 938.87 131.02 C 940.32 137.58 940.00 144.33 940.04 151.00 C 940.05 157.35 940.00 163.70 940.03 170.05 C 940.13 172.46 940.16 175.21 941.91 177.09 C 943.32 178.23 945.16 178.62 946.83 179.29 C 946.80 188.19 946.82 197.09 946.81 205.99 C 941.22 207.39 935.40 207.86 929.65 207.49 C 925.01 207.14 920.12 205.66 917.07 201.95 C 914.11 198.59 913.45 194.01 912.91 189.75 C 906.42 197.71 897.64 203.93 887.63 206.51 C 877.39 209.18 866.03 208.46 856.61 203.42 C 848.61 199.20 842.60 191.47 840.35 182.72 C 838.50 174.91 839.23 166.32 843.26 159.28 C 847.26 152.07 854.20 146.91 861.72 143.82 C 871.22 139.76 881.82 139.00 892.02 139.95 C 897.51 140.42 902.90 141.80 908.02 143.87 C 908.11 138.07 908.14 131.54 904.04 126.92 C 899.06 121.38 890.91 120.74 883.92 121.13 C 873.05 121.64 863.13 126.78 854.18 132.61 C 851.11 125.86 847.64 119.29 844.87 112.41 C 849.83 109.37 854.95 106.53 860.40 104.45 M 885.04 157.77 C 880.24 158.45 875.40 160.49 872.25 164.29 C 868.51 168.74 868.82 175.97 872.85 180.13 C 876.16 183.75 881.26 185.18 886.04 184.97 C 892.56 184.71 899.12 182.38 903.95 177.91 C 905.70 176.31 907.51 174.42 907.83 171.95 C 908.23 168.25 907.92 164.52 907.99 160.81 C 900.66 158.29 892.79 156.76 885.04 157.77 Z" />
<path fill="#000000" opacity="1.00" d=" M 1179.60 105.58 C 1191.30 99.31 1205.07 97.94 1218.09 99.63 C 1232.05 101.46 1245.38 108.77 1253.78 120.18 C 1262.90 132.43 1265.81 148.52 1263.46 163.44 C 1237.60 163.44 1211.73 163.43 1185.87 163.45 C 1186.15 166.40 1186.63 169.37 1187.88 172.08 C 1190.18 177.51 1195.13 181.44 1200.57 183.44 C 1208.85 186.54 1218.48 184.76 1225.63 179.74 C 1228.29 177.91 1230.02 175.12 1231.67 172.41 C 1240.64 175.01 1249.68 177.40 1258.65 180.02 C 1253.26 190.75 1243.66 199.06 1232.63 203.61 C 1221.93 207.94 1210.08 208.80 1198.70 207.43 C 1184.00 205.58 1169.82 197.89 1161.32 185.60 C 1149.83 169.40 1148.99 147.08 1157.16 129.27 C 1161.80 119.21 1169.73 110.66 1179.60 105.58 M 1194.85 125.86 C 1189.02 129.83 1185.98 136.70 1185.19 143.54 C 1200.27 143.55 1215.35 143.61 1230.43 143.51 C 1229.71 138.20 1228.00 132.78 1224.17 128.86 C 1216.91 120.87 1203.62 119.82 1194.85 125.86 Z" />
<path fill="#000000" opacity="1.00" d=" M 411.02 107.00 C 422.82 99.84 437.68 98.36 450.83 102.29 C 461.94 105.72 471.79 113.09 478.13 122.84 C 485.01 133.12 487.94 145.71 487.15 158.00 C 456.73 158.10 426.30 157.97 395.87 158.06 C 396.50 169.17 401.34 179.96 409.09 187.92 C 416.80 195.89 427.94 200.59 439.07 199.93 C 452.11 199.17 465.25 192.01 471.05 179.98 C 473.99 180.77 476.94 181.57 479.88 182.40 C 475.89 192.23 467.28 199.55 457.70 203.70 C 442.45 210.38 423.82 209.42 409.83 200.16 C 394.51 190.28 385.27 172.14 385.39 154.01 C 385.03 135.35 394.79 116.49 411.02 107.00 M 404.12 125.11 C 398.97 132.37 396.23 141.14 395.65 149.98 C 422.96 150.01 450.27 150.02 477.58 149.98 C 476.90 139.00 472.44 128.19 464.66 120.34 C 457.26 112.76 446.75 108.26 436.13 108.45 C 423.60 108.39 411.33 114.88 404.12 125.11 Z" />
<path fill="#000000" opacity="1.00" d=" M 580.03 107.00 C 591.83 99.84 606.69 98.36 619.84 102.29 C 630.94 105.73 640.79 113.09 647.14 122.84 C 654.01 133.12 656.94 145.71 656.15 158.00 C 625.73 158.10 595.30 157.97 564.87 158.06 C 565.50 169.17 570.34 179.96 578.09 187.92 C 585.80 195.89 596.94 200.60 608.07 199.93 C 621.11 199.16 634.25 192.01 640.05 179.98 C 642.99 180.77 645.94 181.57 648.88 182.40 C 644.88 192.23 636.28 199.55 626.70 203.70 C 611.45 210.38 592.82 209.42 578.83 200.16 C 563.51 190.28 554.27 172.14 554.39 154.01 C 554.03 135.35 563.79 116.49 580.03 107.00 M 573.12 125.11 C 567.97 132.37 565.23 141.14 564.65 149.98 C 591.96 150.01 619.27 150.02 646.58 149.98 C 645.90 139.00 641.44 128.18 633.66 120.34 C 626.26 112.76 615.75 108.26 605.13 108.45 C 592.59 108.39 580.33 114.89 573.12 125.11 Z" />
<path fill="#000000" opacity="1.00" d=" M 698.59 105.49 C 710.54 99.41 724.87 98.67 737.61 102.55 C 748.58 105.95 757.96 113.96 762.89 124.36 C 759.65 125.51 756.38 126.57 753.10 127.58 C 751.31 124.86 749.52 122.11 747.21 119.80 C 740.16 112.62 729.95 108.85 719.94 109.27 C 707.22 109.44 695.16 116.66 688.25 127.22 C 678.53 141.68 677.89 161.50 686.27 176.71 C 691.58 186.83 701.03 194.86 712.14 197.79 C 723.85 200.93 736.69 197.52 746.18 190.24 C 749.77 187.56 752.47 183.88 754.39 179.86 C 757.62 180.71 760.85 181.62 764.06 182.56 C 761.00 190.60 754.74 197.11 747.34 201.34 C 732.65 209.73 713.62 210.42 698.64 202.38 C 684.13 194.81 674.05 179.93 671.26 163.93 C 669.47 153.38 670.36 142.31 674.36 132.35 C 678.75 120.81 687.54 111.02 698.59 105.49 Z" />
<path fill="#000000" opacity="1.00" d=" M 82.01 128.01 C 87.34 127.99 92.66 127.99 97.99 128.01 C 98.01 133.33 98.01 138.66 97.99 143.99 C 92.66 144.01 87.34 144.01 82.01 143.99 C 81.99 138.66 81.99 133.34 82.01 128.01 Z" />
<path fill="#000000" opacity="1.00" d=" M 180.85 128.02 C 186.28 127.99 191.71 127.99 197.14 128.02 C 197.25 139.01 197.04 150.00 197.01 160.99 C 208.08 161.02 219.15 160.97 230.23 161.02 C 230.19 166.34 230.37 171.67 230.07 176.99 C 219.05 177.03 208.03 176.98 197.01 177.01 C 196.96 187.67 197.28 198.32 197.14 208.98 C 191.71 209.01 186.28 209.01 180.85 208.98 C 180.77 198.32 181.14 187.67 180.99 177.01 C 169.97 176.98 158.95 177.03 147.92 176.99 C 147.62 171.67 147.80 166.34 147.77 161.01 C 158.84 160.97 169.92 161.02 180.99 160.99 C 181.14 150.00 180.74 139.01 180.85 128.02 Z" />
<path fill="#000000" opacity="1.00" d=" M 82.01 161.01 C 87.34 160.99 92.66 160.99 97.99 161.01 C 98.01 166.33 98.01 171.66 97.99 176.99 C 92.66 177.01 87.34 177.01 82.01 176.99 C 81.99 171.66 81.99 166.33 82.01 161.01 Z" />
<path fill="#000000" opacity="1.00" d=" M 114.68 161.01 C 120.12 160.99 125.55 160.99 130.99 161.01 C 131.01 166.33 131.01 171.66 130.99 176.99 C 125.63 177.01 120.27 177.01 114.91 176.99 C 114.45 171.67 114.75 166.34 114.68 161.01 Z" />
</svg>
